<svg width="154" height="40" viewBox="0 0 154 40" fill="none" xmlns="http://www.w3.org/2000/svg">
<path d="M58.736 11.224V12.616H54.08V28H52.4V12.616H47.72V11.224H58.736Z" fill="#28363A"/>
<path d="M60.6208 21.424C60.6208 20.08 60.8848 18.904 61.4128 17.896C61.9568 16.872 62.7008 16.088 63.6448 15.544C64.6048 14.984 65.6848 14.704 66.8848 14.704C68.1328 14.704 69.2048 14.992 70.1008 15.568C71.0128 16.144 71.6688 16.88 72.0688 17.776V14.896H73.7488V28H72.0688V25.096C71.6528 25.992 70.9888 26.736 70.0768 27.328C69.1808 27.904 68.1088 28.192 66.8608 28.192C65.6768 28.192 64.6048 27.912 63.6448 27.352C62.7008 26.792 61.9568 26 61.4128 24.976C60.8848 23.952 60.6208 22.768 60.6208 21.424ZM72.0688 21.448C72.0688 20.392 71.8528 19.464 71.4208 18.664C70.9888 17.864 70.3968 17.248 69.6448 16.816C68.9088 16.384 68.0928 16.168 67.1968 16.168C66.2688 16.168 65.4368 16.376 64.7008 16.792C63.9648 17.208 63.3808 17.816 62.9488 18.616C62.5328 19.4 62.3248 20.336 62.3248 21.424C62.3248 22.496 62.5328 23.44 62.9488 24.256C63.3808 25.056 63.9648 25.672 64.7008 26.104C65.4368 26.52 66.2688 26.728 67.1968 26.728C68.0928 26.728 68.9088 26.512 69.6448 26.08C70.3968 25.648 70.9888 25.032 71.4208 24.232C71.8528 23.432 72.0688 22.504 72.0688 21.448Z" fill="#28363A"/>
<path d="M79.2401 17.8C79.6721 16.888 80.3361 16.144 81.2321 15.568C82.1441 14.992 83.2161 14.704 84.4481 14.704C85.6481 14.704 86.7201 14.984 87.6641 15.544C88.6081 16.088 89.3441 16.872 89.8721 17.896C90.4161 18.904 90.6881 20.08 90.6881 21.424C90.6881 22.768 90.4161 23.952 89.8721 24.976C89.3441 26 88.6001 26.792 87.6401 27.352C86.6961 27.912 85.6321 28.192 84.4481 28.192C83.2001 28.192 82.1201 27.912 81.2081 27.352C80.3121 26.776 79.6561 26.032 79.2401 25.12V28H77.5841V10.24H79.2401V17.8ZM88.9841 21.424C88.9841 20.336 88.7681 19.4 88.3361 18.616C87.9201 17.816 87.3441 17.208 86.6081 16.792C85.8721 16.376 85.0401 16.168 84.1121 16.168C83.2161 16.168 82.3921 16.384 81.6401 16.816C80.9041 17.248 80.3201 17.864 79.8881 18.664C79.4561 19.464 79.2401 20.392 79.2401 21.448C79.2401 22.504 79.4561 23.432 79.8881 24.232C80.3201 25.032 80.9041 25.648 81.6401 26.08C82.3921 26.512 83.2161 26.728 84.1121 26.728C85.0401 26.728 85.8721 26.52 86.6081 26.104C87.3441 25.672 87.9201 25.056 88.3361 24.256C88.7681 23.44 88.9841 22.496 88.9841 21.424Z" fill="#28363A"/>
<path d="M105.131 14.896V28H103.451V25.696C103.067 26.512 102.475 27.136 101.675 27.568C100.875 28 99.9794 28.216 98.9874 28.216C97.4194 28.216 96.1394 27.736 95.1474 26.776C94.1554 25.8 93.6594 24.392 93.6594 22.552V14.896H95.3154V22.36C95.3154 23.784 95.6674 24.872 96.3714 25.624C97.0914 26.376 98.0674 26.752 99.2994 26.752C100.563 26.752 101.571 26.352 102.323 25.552C103.075 24.752 103.451 23.576 103.451 22.024V14.896H105.131Z" fill="#28363A"/>
<path d="M110.647 17.224C111.015 16.408 111.575 15.776 112.327 15.328C113.095 14.88 114.031 14.656 115.135 14.656V16.408H114.679C113.463 16.408 112.487 16.736 111.751 17.392C111.015 18.048 110.647 19.144 110.647 20.68V28H108.967V14.896H110.647V17.224Z" fill="#28363A"/>
<path d="M129.518 20.776C129.518 21.352 129.502 21.792 129.47 22.096H118.598C118.646 23.088 118.886 23.936 119.318 24.64C119.75 25.344 120.318 25.88 121.022 26.248C121.726 26.6 122.494 26.776 123.326 26.776C124.414 26.776 125.326 26.512 126.062 25.984C126.814 25.456 127.31 24.744 127.55 23.848H129.326C129.006 25.128 128.318 26.176 127.262 26.992C126.222 27.792 124.91 28.192 123.326 28.192C122.094 28.192 120.99 27.92 120.014 27.376C119.038 26.816 118.27 26.032 117.71 25.024C117.166 24 116.894 22.808 116.894 21.448C116.894 20.088 117.166 18.896 117.71 17.872C118.254 16.848 119.014 16.064 119.99 15.52C120.966 14.976 122.078 14.704 123.326 14.704C124.574 14.704 125.662 14.976 126.59 15.52C127.534 16.064 128.254 16.8 128.75 17.728C129.262 18.64 129.518 19.656 129.518 20.776ZM127.814 20.728C127.83 19.752 127.63 18.92 127.214 18.232C126.814 17.544 126.262 17.024 125.558 16.672C124.854 16.32 124.086 16.144 123.254 16.144C122.006 16.144 120.942 16.544 120.062 17.344C119.182 18.144 118.694 19.272 118.598 20.728H127.814Z" fill="#28363A"/>
<path d="M134.776 16.312V24.448C134.776 25.248 134.928 25.8 135.232 26.104C135.536 26.408 136.072 26.56 136.84 26.56H138.376V28H136.576C135.392 28 134.512 27.728 133.936 27.184C133.36 26.624 133.072 25.712 133.072 24.448V16.312H131.248V14.896H133.072V11.608H134.776V14.896H138.376V16.312H134.776Z" fill="#28363A"/>
<path d="M153.003 20.776C153.003 21.352 152.987 21.792 152.955 22.096H142.083C142.131 23.088 142.371 23.936 142.803 24.64C143.235 25.344 143.803 25.88 144.507 26.248C145.211 26.6 145.979 26.776 146.811 26.776C147.899 26.776 148.811 26.512 149.547 25.984C150.299 25.456 150.795 24.744 151.035 23.848H152.811C152.491 25.128 151.803 26.176 150.747 26.992C149.707 27.792 148.395 28.192 146.811 28.192C145.579 28.192 144.475 27.92 143.499 27.376C142.523 26.816 141.755 26.032 141.195 25.024C140.651 24 140.379 22.808 140.379 21.448C140.379 20.088 140.651 18.896 141.195 17.872C141.739 16.848 142.499 16.064 143.475 15.52C144.451 14.976 145.563 14.704 146.811 14.704C148.059 14.704 149.147 14.976 150.075 15.52C151.019 16.064 151.739 16.8 152.235 17.728C152.747 18.64 153.003 19.656 153.003 20.776ZM151.299 20.728C151.315 19.752 151.115 18.92 150.699 18.232C150.299 17.544 149.747 17.024 149.043 16.672C148.339 16.32 147.571 16.144 146.739 16.144C145.491 16.144 144.427 16.544 143.547 17.344C142.667 18.144 142.179 19.272 142.083 20.728H151.299Z" fill="#28363A"/>
<circle cx="20" cy="20" r="20" fill="#D25324"/>
<path d="M27.5156 8H11.5781C10.1565 8 9 9.15655 9 10.5781V13.9062C9 15.3278 10.1565 16.4844 11.5781 16.4844H12.4136L10.6276 29.621C10.4566 30.8795 11.4362 32 12.705 32C13.7488 32 14.6419 31.2201 14.7825 30.1858L15.6893 23.5156H23.4019L24.311 30.1866C24.4519 31.2204 25.3449 32 26.3882 32C27.6585 32 28.6369 30.8779 28.4655 29.6204L26.6754 16.4844H27.5156C28.9372 16.4844 30.0938 15.3278 30.0938 13.9062V10.5781C30.0938 9.15655 28.9372 8 27.5156 8ZM13.3891 29.9964C13.3428 30.337 13.0487 30.5938 12.705 30.5938C12.2865 30.5938 11.9646 30.226 12.021 29.8105L13.8328 16.4844H15.2261L13.3891 29.9964ZM22.4437 16.4844L22.827 19.2969H16.2629L16.6453 16.4844H22.4437ZM15.8805 22.1094L16.0717 20.7031H23.0186L23.2103 22.1094H15.8805ZM27.0722 29.8103C27.1287 30.2252 26.8076 30.5938 26.3882 30.5938C26.0447 30.5938 25.7507 30.3371 25.7043 29.9967L23.8629 16.4844H25.2562L27.0722 29.8103ZM28.6875 13.9062C28.6875 14.5524 28.1618 15.0781 27.5156 15.0781H11.5781C10.932 15.0781 10.4062 14.5524 10.4062 13.9062V10.5781C10.4062 9.93195 10.932 9.40625 11.5781 9.40625H27.5156C28.1618 9.40625 28.6875 9.93195 28.6875 10.5781V13.9062Z" fill="#F5FCFF"/>
</svg>
